<?xml version="1.0" standalone="no"?>
<!DOCTYPE svg PUBLIC "-//W3C//DTD SVG 20010904//EN"
 "http://www.w3.org/TR/2001/REC-SVG-20010904/DTD/svg10.dtd">
<svg version="1.0" xmlns="http://www.w3.org/2000/svg"
 width="191.000000pt" height="254.000000pt" viewBox="0 0 191.000000 254.000000"
 preserveAspectRatio="xMidYMid meet">

<g transform="translate(0.000000,254.000000) scale(0.100000,-0.100000)"
fill="#000000" stroke="none">
<path d="M192 2493 c-4 -10 -7 -76 -7 -148 0 -115 3 -135 22 -171 40 -74 110
-122 297 -203 49 -21 49 -22 28 -37 -39 -27 -26 -61 30 -83 21 -8 31 -6 52 10
l25 19 24 -32 c37 -50 66 -111 79 -170 l12 -53 7 40 c15 84 -30 194 -113 271
-31 29 -91 65 -174 105 -144 70 -202 116 -234 190 -23 56 -21 79 4 31 24 -46
72 -81 176 -129 154 -71 157 -73 224 -142 111 -113 143 -159 176 -255 l18 -51
17 39 c23 54 13 117 -25 159 l-29 32 14 -49 c8 -27 15 -61 15 -75 0 -20 -6
-14 -26 29 -29 64 -118 184 -176 241 -25 24 -88 62 -162 98 -72 35 -134 72
-153 92 -38 40 -62 102 -70 184 -6 55 -15 74 -36 75 -4 0 -11 -8 -15 -17z"/>
<path d="M1645 2498 c-2 -7 -9 -46 -15 -86 -20 -136 -55 -177 -218 -253 -56
-27 -118 -60 -138 -75 -68 -52 -199 -236 -217 -305 -3 -13 -8 -21 -11 -19 -4
5 5 61 19 115 8 28 7 29 -10 15 -43 -36 -57 -118 -29 -172 l17 -32 17 57 c21
68 92 170 180 257 54 55 80 72 158 104 121 51 196 99 223 143 30 48 37 25 9
-32 -31 -64 -87 -107 -227 -175 -81 -39 -140 -75 -173 -106 -87 -81 -128 -175
-115 -261 l7 -48 17 65 c17 68 55 143 89 173 17 16 21 16 32 2 23 -28 79 -14
100 25 8 15 6 24 -10 40 -20 20 -19 20 103 79 142 69 186 103 219 168 20 41
23 63 23 153 0 123 -10 180 -31 180 -8 0 -16 -6 -19 -12z"/>
<path d="M430 2358 c-34 -11 -33 -12 45 -19 90 -8 159 -29 219 -66 50 -31 128
-104 168 -158 30 -39 30 -39 24 -10 -19 82 -107 179 -204 227 -51 25 -78 32
-140 34 -42 2 -93 -2 -112 -8z"/>
<path d="M1233 2351 c-101 -35 -186 -112 -230 -210 -28 -62 -25 -77 6 -27 30
48 127 136 187 168 65 35 152 58 229 59 l60 1 -40 13 c-57 19 -151 17 -212 -4z"/>
<path d="M122 2077 c-98 -101 -102 -283 -9 -384 21 -24 47 -33 30 -10 -23 28
-53 131 -53 180 0 62 19 136 49 195 12 24 21 46 19 48 -3 2 -18 -11 -36 -29z"/>
<path d="M1734 2066 c34 -59 59 -168 53 -231 -3 -27 -16 -76 -30 -107 -14 -32
-22 -58 -17 -58 18 0 71 84 86 138 24 82 -2 190 -62 261 -47 54 -63 52 -30 -3z"/>
<path d="M165 1949 c-13 -39 -16 -74 -13 -143 8 -147 54 -251 137 -306 78 -52
132 -65 276 -65 74 0 138 5 148 11 14 8 -3 11 -71 12 -148 2 -307 48 -359 104
-31 33 -70 115 -88 184 -16 60 -22 205 -9 237 3 9 4 17 1 17 -3 0 -13 -23 -22
-51z"/>
<path d="M1698 1915 c7 -143 -48 -314 -119 -368 -70 -52 -198 -86 -339 -89
-117 -3 -92 -20 38 -26 160 -7 282 28 350 102 40 44 75 121 94 209 13 62 6
180 -14 227 -15 34 -15 32 -10 -55z"/>
<path d="M741 1981 c-17 -11 -10 -15 60 -35 31 -8 68 -25 83 -37 32 -25 44
-19 28 16 -23 50 -126 84 -171 56z"/>
<path d="M995 1959 c-19 -17 -35 -40 -35 -50 0 -18 4 -17 53 10 28 16 68 32
87 36 19 4 39 10 44 12 16 10 -20 23 -66 23 -39 0 -54 -6 -83 -31z"/>
<path d="M446 1914 c-20 -53 26 -125 95 -146 36 -10 42 -9 62 10 l21 22 -30 0
c-44 0 -95 38 -120 88 -16 30 -24 38 -28 26z"/>
<path d="M1402 1885 c-24 -50 -71 -85 -114 -85 -33 0 -36 -15 -7 -30 65 -36
178 67 151 139 -7 20 -10 18 -30 -24z"/>
<path d="M280 1870 c0 -123 115 -240 235 -240 25 0 115 33 115 42 0 2 -35 3
-78 3 -66 0 -84 4 -124 27 -47 28 -128 133 -128 167 0 9 -5 23 -10 31 -7 11
-10 3 -10 -30z"/>
<path d="M376 1884 c-18 -83 85 -184 188 -184 36 0 48 5 65 27 26 33 21 40
-13 18 -23 -15 -32 -16 -72 -5 -58 17 -131 82 -148 134 l-14 40 -6 -30z"/>
<path d="M1483 1885 c0 -51 -75 -122 -154 -146 -29 -9 -42 -8 -68 6 -34 17
-35 10 -3 -27 21 -24 92 -23 141 2 71 36 125 126 101 170 -14 26 -17 25 -17
-5z"/>
<path d="M1572 1854 c-9 -32 -28 -61 -70 -104 -65 -67 -113 -85 -201 -78 -47
4 -52 3 -35 -9 64 -47 173 -36 243 24 49 41 76 91 86 155 9 60 -8 69 -23 12z"/>
<path d="M910 1699 c-12 -23 -42 -65 -65 -93 l-42 -52 31 -36 c17 -19 47 -63
67 -97 l37 -62 45 73 c25 40 57 84 71 97 l25 24 -44 50 c-24 28 -55 70 -67 94
-13 24 -26 43 -29 43 -3 0 -16 -19 -29 -41z m86 -118 l21 -25 -35 -53 c-19
-29 -36 -53 -38 -53 -2 0 -4 46 -3 103 0 99 1 101 17 77 9 -13 27 -36 38 -49z"/>
<path d="M105 1608 c-69 -35 -105 -76 -105 -120 0 -47 26 -61 86 -47 55 12 59
11 41 -9 -10 -10 -17 -24 -17 -30 0 -22 40 -52 70 -52 23 0 30 -5 30 -19 0
-29 29 -34 175 -35 121 -1 134 -3 187 -29 31 -15 92 -60 135 -100 76 -71 77
-71 43 -24 -50 70 -123 135 -183 162 -68 31 -181 47 -242 36 l-46 -9 31 27
c28 24 30 28 17 46 -15 19 -16 19 -86 1 -71 -18 -104 -14 -67 8 11 6 31 22 45
35 23 22 23 24 6 33 -16 10 -68 7 -167 -8 -35 -6 -38 -4 -38 19 0 24 50 78
110 119 34 23 23 21 -25 -4z"/>
<path d="M1750 1613 c52 -36 110 -101 110 -123 0 -21 -3 -22 -42 -17 -24 4
-61 10 -83 15 -45 9 -87 2 -92 -15 -3 -7 15 -26 38 -42 52 -38 33 -51 -38 -27
-61 21 -80 20 -93 -3 -8 -16 -5 -23 15 -39 l25 -20 -78 0 c-152 -1 -233 -34
-326 -133 -93 -98 -102 -127 -13 -41 46 44 97 83 134 100 53 25 69 27 196 29
140 2 174 10 163 40 -4 11 1 13 22 11 23 -3 29 -10 39 -48 16 -64 15 -214 -2
-289 -9 -35 -34 -100 -57 -145 -58 -111 -226 -280 -388 -389 -62 -42 -110 -77
-106 -77 4 0 53 23 108 52 241 123 424 311 481 493 16 52 22 94 21 165 0 95
-4 108 -61 238 -3 7 2 12 11 12 27 0 40 38 22 64 l-15 24 64 -5 c57 -5 64 -3
74 16 25 45 -21 108 -112 151 -31 15 -36 16 -17 3z"/>
<path d="M67 1388 c-50 -86 -61 -134 -65 -289 -3 -127 -1 -157 18 -225 43
-158 152 -351 286 -508 36 -42 68 -76 70 -76 6 0 7 -2 -75 120 -114 171 -207
378 -242 535 -25 117 -6 386 33 458 21 40 -2 26 -25 -15z"/>
<path d="M1784 1415 c3 -11 12 -47 21 -80 23 -86 31 -268 15 -362 -25 -157
-121 -377 -251 -572 -38 -58 -67 -106 -66 -108 2 -1 34 34 72 80 143 172 248
364 286 523 28 117 23 306 -10 399 -21 59 -77 160 -67 120z"/>
<path d="M786 1377 c4 -6 18 -25 30 -42 12 -16 38 -62 58 -102 46 -92 61 -103
52 -37 -10 67 -42 130 -80 158 -39 29 -70 41 -60 23z"/>
<path d="M1054 1371 c-61 -37 -109 -127 -102 -192 3 -33 4 -33 42 41 21 41 52
94 68 118 17 24 28 45 26 47 -2 2 -18 -4 -34 -14z"/>
<path d="M691 1294 c31 -33 71 -80 88 -106 24 -36 38 -48 57 -48 l25 0 -22 40
c-39 69 -76 105 -141 140 l-63 33 56 -59z"/>
<path d="M1180 1324 c-58 -33 -96 -68 -131 -123 -35 -55 -36 -61 -5 -61 18 0
31 12 51 46 15 25 54 73 86 105 32 32 56 59 52 59 -5 0 -28 -12 -53 -26z"/>
<path d="M137 1313 c-56 -107 -62 -274 -15 -391 81 -198 241 -353 497 -481 93
-47 120 -49 39 -3 -115 65 -270 195 -366 306 -133 155 -191 384 -142 557 12
42 5 49 -13 12z"/>
<path d="M249 1208 c-19 -43 -24 -70 -24 -143 0 -80 3 -97 31 -155 38 -80 76
-127 146 -183 56 -46 128 -90 134 -84 3 2 -14 17 -37 33 -59 40 -141 135 -178
203 -56 105 -74 226 -50 330 14 61 6 61 -22 -1z"/>
<path d="M1604 1230 c14 -73 18 -123 12 -155 -10 -50 -38 -55 -354 -55 -221 0
-280 3 -309 15 -20 8 -37 14 -38 13 -7 -10 -25 -182 -19 -187 4 -3 8 -1 10 4
33 89 63 104 211 104 l103 1 2 -246 3 -245 35 23 35 24 3 223 2 224 113 -5
c116 -4 157 -16 157 -46 0 -46 -96 -170 -195 -251 l-40 -33 55 28 c73 38 188
154 222 224 54 113 57 239 6 330 -15 29 -18 30 -14 10z"/>
<path d="M685 1020 c-49 -4 -64 -8 -50 -14 40 -16 50 -23 53 -43 2 -11 -29
-106 -67 -212 -39 -105 -71 -194 -71 -198 0 -5 16 -18 35 -30 32 -21 47 -23
168 -23 l133 0 62 -172 c72 -200 76 -224 31 -235 -16 -5 -31 -12 -32 -16 -1
-4 102 -8 228 -9 138 -1 229 2 228 8 -1 5 -14 10 -27 12 -33 4 -66 47 -66 83
0 16 4 29 8 29 18 0 173 164 217 229 42 64 125 228 125 247 0 5 -29 -20 -64
-55 -41 -40 -77 -88 -96 -128 -46 -92 -135 -207 -241 -307 l-91 -87 -29 27
c-40 39 -71 117 -306 777 -34 96 -49 127 -62 125 -9 -1 -47 -4 -86 -8z m115
-285 c34 -97 60 -178 58 -181 -3 -2 -62 -3 -130 -2 l-126 3 66 178 c35 97 66
177 67 177 1 0 30 -79 65 -175z"/>
<path d="M220 669 c0 -17 69 -159 105 -215 21 -32 57 -82 81 -111 l44 -52 -29
-62 c-42 -84 -76 -127 -111 -136 -63 -17 -28 -28 90 -28 73 0 119 4 117 10 -2
5 -14 12 -28 15 -21 6 -24 12 -23 51 0 24 7 58 15 76 l14 32 64 -48 c35 -27
82 -59 105 -72 33 -19 22 -5 -57 70 -113 108 -175 188 -224 286 -24 47 -56 90
-99 131 -35 34 -64 58 -64 53z"/>
<path d="M502 425 c-17 -36 -15 -59 6 -78 17 -16 19 -14 34 33 15 48 15 51 -2
60 -25 13 -25 13 -38 -15z"/>
<path d="M1253 403 l-33 -17 0 -100 0 -100 40 39 c40 39 40 39 40 117 0 43 -3
78 -7 77 -5 0 -23 -8 -40 -16z"/>
</g>
</svg>
